<mxfile host="Electron" agent="Mozilla/5.0 (X11; Linux x86_64) AppleWebKit/537.36 (KHTML, like Gecko) draw.io/24.7.5 Chrome/126.0.6478.185 Electron/31.3.1 Safari/537.36" version="24.7.5">
  <diagram name="Page-1" id="9GXQ5ZOMWQYIWVeiQduG">
    <mxGraphModel dx="1050" dy="659" grid="1" gridSize="10" guides="1" tooltips="1" connect="1" arrows="1" fold="1" page="1" pageScale="1" pageWidth="850" pageHeight="1100" math="0" shadow="0">
      <root>
        <mxCell id="0" />
        <mxCell id="1" parent="0" />
        <mxCell id="s4OijUtmKrAFOL8wZCwl-2" value="" style="rounded=0;whiteSpace=wrap;html=1;fillColor=none;" vertex="1" parent="1">
          <mxGeometry x="80" y="150" width="320" height="180" as="geometry" />
        </mxCell>
        <mxCell id="s4OijUtmKrAFOL8wZCwl-3" value="" style="rounded=0;whiteSpace=wrap;html=1;fillColor=none;" vertex="1" parent="1">
          <mxGeometry x="580" y="150" width="20" height="180" as="geometry" />
        </mxCell>
        <mxCell id="s4OijUtmKrAFOL8wZCwl-4" value="" style="rounded=0;whiteSpace=wrap;html=1;fillColor=none;" vertex="1" parent="1">
          <mxGeometry x="600" y="205" width="30" height="70" as="geometry" />
        </mxCell>
        <mxCell id="s4OijUtmKrAFOL8wZCwl-5" value="" style="rounded=1;whiteSpace=wrap;html=1;fillColor=none;" vertex="1" parent="1">
          <mxGeometry x="210" y="270" width="60" height="130" as="geometry" />
        </mxCell>
        <mxCell id="s4OijUtmKrAFOL8wZCwl-6" value="" style="rounded=1;whiteSpace=wrap;html=1;rotation=-15;fillColor=none;" vertex="1" parent="1">
          <mxGeometry x="631.34" y="270.16" width="20" height="129.66" as="geometry" />
        </mxCell>
        <mxCell id="s4OijUtmKrAFOL8wZCwl-7" value="" style="rounded=1;whiteSpace=wrap;html=1;fillColor=none;" vertex="1" parent="1">
          <mxGeometry x="160" y="380" width="160" height="30" as="geometry" />
        </mxCell>
        <mxCell id="s4OijUtmKrAFOL8wZCwl-8" value="" style="rounded=1;whiteSpace=wrap;html=1;fillColor=none;" vertex="1" parent="1">
          <mxGeometry x="560" y="380" width="110" height="30" as="geometry" />
        </mxCell>
        <mxCell id="s4OijUtmKrAFOL8wZCwl-9" value="" style="endArrow=classic;startArrow=classic;html=1;rounded=0;entryX=1;entryY=0;entryDx=0;entryDy=0;exitX=0;exitY=1;exitDx=0;exitDy=0;fillColor=#0050ef;strokeColor=#007FFF;fontColor=#007FFF;" edge="1" parent="1" source="s4OijUtmKrAFOL8wZCwl-2" target="s4OijUtmKrAFOL8wZCwl-2">
          <mxGeometry width="50" height="50" relative="1" as="geometry">
            <mxPoint x="400" y="370" as="sourcePoint" />
            <mxPoint x="450" y="320" as="targetPoint" />
          </mxGeometry>
        </mxCell>
        <mxCell id="s4OijUtmKrAFOL8wZCwl-10" value="" style="endArrow=classic;startArrow=classic;html=1;rounded=0;strokeColor=#007FFF;align=center;verticalAlign=middle;fontFamily=Helvetica;fontSize=11;fontColor=#007FFF;labelBackgroundColor=none;fillColor=#0050ef;" edge="1" parent="1">
          <mxGeometry width="50" height="50" relative="1" as="geometry">
            <mxPoint x="400" y="410" as="sourcePoint" />
            <mxPoint x="400" y="330" as="targetPoint" />
          </mxGeometry>
        </mxCell>
        <mxCell id="s4OijUtmKrAFOL8wZCwl-12" value="diagonal" style="text;html=1;align=center;verticalAlign=middle;whiteSpace=wrap;rounded=0;fontFamily=Helvetica;fontSize=12;fontColor=#007FFF;labelBackgroundColor=none;" vertex="1" parent="1">
          <mxGeometry x="180" y="220" width="60" height="30" as="geometry" />
        </mxCell>
        <mxCell id="s4OijUtmKrAFOL8wZCwl-13" value="" style="endArrow=classic;startArrow=classic;html=1;rounded=0;strokeColor=#007FFF;align=center;verticalAlign=middle;fontFamily=Helvetica;fontSize=11;fontColor=#007FFF;labelBackgroundColor=none;fillColor=#0050ef;" edge="1" parent="1">
          <mxGeometry width="50" height="50" relative="1" as="geometry">
            <mxPoint x="580" y="140" as="sourcePoint" />
            <mxPoint x="600" y="140" as="targetPoint" />
          </mxGeometry>
        </mxCell>
        <mxCell id="s4OijUtmKrAFOL8wZCwl-14" value="screen thickness" style="text;html=1;align=center;verticalAlign=middle;whiteSpace=wrap;rounded=0;fontFamily=Helvetica;fontSize=12;fontColor=#007FFF;labelBackgroundColor=none;" vertex="1" parent="1">
          <mxGeometry x="560" y="100" width="60" height="30" as="geometry" />
        </mxCell>
        <mxCell id="s4OijUtmKrAFOL8wZCwl-15" value="" style="endArrow=classic;startArrow=classic;html=1;rounded=0;strokeColor=#007FFF;align=center;verticalAlign=middle;fontFamily=Helvetica;fontSize=11;fontColor=#007FFF;labelBackgroundColor=none;fillColor=#0050ef;" edge="1" parent="1">
          <mxGeometry width="50" height="50" relative="1" as="geometry">
            <mxPoint x="140" y="410" as="sourcePoint" />
            <mxPoint x="140" y="380" as="targetPoint" />
          </mxGeometry>
        </mxCell>
        <mxCell id="s4OijUtmKrAFOL8wZCwl-17" value="base thickness" style="text;html=1;align=center;verticalAlign=middle;whiteSpace=wrap;rounded=0;fontFamily=Helvetica;fontSize=12;fontColor=#007FFF;labelBackgroundColor=none;" vertex="1" parent="1">
          <mxGeometry x="70" y="380" width="60" height="30" as="geometry" />
        </mxCell>
        <mxCell id="s4OijUtmKrAFOL8wZCwl-18" value="base height" style="text;html=1;align=center;verticalAlign=middle;whiteSpace=wrap;rounded=0;fillColor=none;fontColor=#007FFF;" vertex="1" parent="1">
          <mxGeometry x="395" y="350" width="60" height="30" as="geometry" />
        </mxCell>
        <mxCell id="s4OijUtmKrAFOL8wZCwl-20" value="" style="endArrow=classic;startArrow=classic;html=1;rounded=0;strokeColor=#007FFF;align=center;verticalAlign=middle;fontFamily=Helvetica;fontSize=11;fontColor=#007FFF;labelBackgroundColor=none;fillColor=#0050ef;" edge="1" parent="1">
          <mxGeometry width="50" height="50" relative="1" as="geometry">
            <mxPoint x="160" y="430" as="sourcePoint" />
            <mxPoint x="320" y="430" as="targetPoint" />
          </mxGeometry>
        </mxCell>
        <mxCell id="s4OijUtmKrAFOL8wZCwl-21" value="base width" style="text;html=1;align=center;verticalAlign=middle;whiteSpace=wrap;rounded=0;fontFamily=Helvetica;fontSize=12;fontColor=#007FFF;" vertex="1" parent="1">
          <mxGeometry x="210" y="430" width="60" height="30" as="geometry" />
        </mxCell>
        <mxCell id="s4OijUtmKrAFOL8wZCwl-22" value="" style="endArrow=classic;startArrow=classic;html=1;rounded=0;strokeColor=#007FFF;align=center;verticalAlign=middle;fontFamily=Helvetica;fontSize=11;fontColor=#007FFF;labelBackgroundColor=none;fillColor=#0050ef;" edge="1" parent="1">
          <mxGeometry width="50" height="50" relative="1" as="geometry">
            <mxPoint x="210" y="480" as="sourcePoint" />
            <mxPoint x="270" y="480" as="targetPoint" />
          </mxGeometry>
        </mxCell>
        <mxCell id="s4OijUtmKrAFOL8wZCwl-24" value="handle width" style="text;html=1;align=center;verticalAlign=middle;whiteSpace=wrap;rounded=0;fontFamily=Helvetica;fontSize=12;fontColor=#007FFF;" vertex="1" parent="1">
          <mxGeometry x="210" y="480" width="60" height="30" as="geometry" />
        </mxCell>
        <mxCell id="s4OijUtmKrAFOL8wZCwl-25" value="" style="endArrow=classic;startArrow=classic;html=1;rounded=0;strokeColor=#007FFF;align=center;verticalAlign=middle;fontFamily=Helvetica;fontSize=11;fontColor=#007FFF;labelBackgroundColor=none;fillColor=#0050ef;" edge="1" parent="1">
          <mxGeometry width="50" height="50" relative="1" as="geometry">
            <mxPoint x="560" y="440" as="sourcePoint" />
            <mxPoint x="670" y="440" as="targetPoint" />
          </mxGeometry>
        </mxCell>
        <mxCell id="s4OijUtmKrAFOL8wZCwl-26" value="base depth" style="text;html=1;align=center;verticalAlign=middle;whiteSpace=wrap;rounded=0;fontFamily=Helvetica;fontSize=12;fontColor=#007FFF;" vertex="1" parent="1">
          <mxGeometry x="585" y="450" width="60" height="30" as="geometry" />
        </mxCell>
      </root>
    </mxGraphModel>
  </diagram>
</mxfile>
